<svg
    xmlns="http://www.w3.org/2000/svg"
    viewBox="0 0 40 40"
    id="iconssettingsdisplayedens">
    <path
        id="path"
        d="M 40 20 C 40 31.046 31.046 40 20 40 C 8.954 40 0 31.046 0 20 C 0 8.954 8.954 0 20 0 C 31.046 0 40 8.954 40 20"
        fill="#ffffff"
        fill-rule="evenodd"/>
    <g
        id="group"
        transform="translate(8 13)">
        <path
            id="path_1"
            d="M 21.5 15 L 2.5 15 C 1.125 15 0 13.875 0 12.5 L 0 2.5 C 0 1.125 1.125 0 2.5 0 L 21.5 0 C 22.875 0 24 1.125 24 2.5 L 24 12.5 C 24 13.875 22.875 15 21.5 15"
            fill="#000000"
            fill-rule="evenodd"/>
    </g>
    <path
        id="path_2"
        d="M 11.745 23.414 L 12.753 23.572 L 12.753 24 L 10.362 24 L 10.362 23.572 L 10.948 23.414 L 13.743 16.078 L 15.442 16.078 L 18.225 23.414 L 18.823 23.572 L 18.823 24 L 15.325 24 L 15.325 23.572 L 16.233 23.414 L 15.483 21.381 L 12.466 21.381 L 11.745 23.414 Z M 15.261 20.736 L 14.001 17.262 L 12.706 20.736 L 15.261 20.736 Z M 22.11 18.369 L 22.11 18.369 Q 24.179 18.369 24.179 19.893 L 24.179 19.893 L 24.179 23.473 L 24.729 23.613 L 24.729 24 L 22.702 24 L 22.573 23.578 Q 22.116 23.889 21.747 24.003 Q 21.378 24.117 21.003 24.117 L 21.003 24.117 Q 19.298 24.117 19.298 22.477 L 19.298 22.477 Q 19.298 21.855 19.55 21.483 Q 19.802 21.111 20.276 20.933 Q 20.751 20.754 21.77 20.73 L 21.77 20.73 L 22.485 20.713 L 22.485 19.91 Q 22.485 18.914 21.671 18.914 L 21.671 18.914 Q 21.179 18.914 20.569 19.219 L 20.569 19.219 L 20.347 19.904 L 19.96 19.904 L 19.96 18.574 Q 20.845 18.439 21.261 18.404 Q 21.677 18.369 22.11 18.369 Z M 22.485 23.203 L 22.485 21.234 L 21.993 21.252 Q 21.425 21.275 21.205 21.551 Q 20.985 21.826 20.985 22.441 L 20.985 22.441 Q 20.985 22.939 21.161 23.174 Q 21.337 23.408 21.618 23.408 L 21.618 23.408 Q 22.016 23.408 22.485 23.203 L 22.485 23.203 Z M 26.651 26.59 L 25.813 26.59 L 25.813 15.674 L 26.651 15.674 L 26.651 26.59 Z"
        fill="#ffffff"/>
</svg>
