<svg
    xmlns="http://www.w3.org/2000/svg"
    viewBox="0 0 40 40"
    id="currency">
    <path
        id="path"
        d="M 40 20 C 40 31.046 31.046 40 20 40 C 8.954 40 0 31.046 0 20 C 0 8.954 8.954 0 20 0 C 31.046 0 40 8.954 40 20"
        fill="#ffffff"
        stroke="#00000000"
        stroke-width="1"
        fill-rule="evenodd"/>
    <path
        id="path_1"
        d="M 24.32 20 C 25.172 20 25.985 20.41 26.609 21.155 C 26.778 21.358 26.752 21.661 26.549 21.832 C 26.345 22.002 26.042 21.975 25.872 21.771 C 25.434 21.249 24.883 20.96 24.32 20.96 C 23.365 20.96 22.541 21.747 22.154 22.88 L 23.84 22.88 C 24.105 22.88 24.32 23.095 24.32 23.36 C 24.32 23.625 24.105 23.84 23.84 23.84 L 21.947 23.84 C 21.931 23.997 21.92 24.157 21.92 24.32 C 21.92 24.483 21.931 24.643 21.947 24.8 L 23.84 24.8 C 24.105 24.8 24.32 25.015 24.32 25.28 C 24.32 25.545 24.105 25.76 23.84 25.76 L 22.154 25.76 C 22.541 26.894 23.365 27.68 24.32 27.68 C 24.883 27.68 25.434 27.392 25.872 26.869 C 26.042 26.666 26.345 26.638 26.549 26.809 C 26.752 26.979 26.779 27.281 26.609 27.485 C 25.985 28.229 25.172 28.64 24.32 28.64 C 22.861 28.64 21.619 27.436 21.156 25.76 L 20.48 25.76 C 20.215 25.76 20 25.545 20 25.28 C 20 25.015 20.215 24.8 20.48 24.8 L 20.983 24.8 C 20.969 24.642 20.96 24.482 20.96 24.32 C 20.96 24.158 20.969 23.998 20.983 23.84 L 20.48 23.84 C 20.215 23.84 20 23.625 20 23.36 C 20 23.095 20.215 22.88 20.48 22.88 L 21.156 22.88 C 21.619 21.205 22.861 20 24.32 20 L 24.32 20 Z M 24.32 16.64 C 20.086 16.64 16.64 20.085 16.64 24.32 C 16.64 28.555 20.086 32 24.32 32 C 28.555 32 32 28.555 32 24.32 C 32 20.085 28.555 16.64 24.32 16.64 L 24.32 16.64 Z M 16.16 15.78 L 16.16 18.379 C 16.301 18.343 16.438 18.308 16.545 18.272 C 16.689 18.225 16.88 18.128 16.976 18.032 C 17.12 17.937 17.216 17.792 17.264 17.6 C 17.313 17.456 17.36 17.217 17.36 17.024 C 17.36 16.832 17.313 16.64 17.264 16.496 C 17.216 16.352 17.12 16.256 16.976 16.16 C 16.832 16.064 16.689 15.968 16.545 15.92 C 16.405 15.885 16.286 15.829 16.16 15.78 L 16.16 15.78 Z M 15.2 12.145 C 14.963 12.179 14.716 12.276 14.528 12.465 C 14.288 12.656 14.193 12.991 14.193 13.376 C 14.193 13.567 14.24 13.712 14.288 13.855 C 14.336 14 14.432 14.096 14.528 14.192 C 14.624 14.288 14.768 14.336 14.912 14.433 C 14.999 14.461 15.1 14.505 15.2 14.548 L 15.2 12.145 Z M 15.68 9.92 C 15.945 9.92 16.16 10.135 16.16 10.4 L 16.16 11.232 C 16.692 11.298 17.139 11.523 17.456 11.84 C 17.792 12.176 18.032 12.704 18.176 13.328 L 17.264 13.328 C 17.128 12.644 16.771 12.266 16.16 12.106 L 16.16 14.75 L 16.688 14.912 C 16.832 14.96 16.976 15.009 17.168 15.104 C 17.36 15.2 17.552 15.296 17.744 15.488 C 17.937 15.632 18.08 15.824 18.176 16.064 C 18.32 16.305 18.368 16.592 18.368 16.928 C 18.368 17.264 18.32 17.6 18.176 17.84 C 18.08 18.128 17.888 18.368 17.696 18.56 C 17.504 18.752 17.264 18.896 16.976 19.04 C 16.726 19.123 16.473 19.203 16.16 19.224 L 16.16 20 C 16.16 20.265 15.945 20.48 15.68 20.48 C 15.415 20.48 15.2 20.265 15.2 20 L 15.2 19.194 C 14.595 19.104 14.099 18.846 13.76 18.465 C 13.328 18.032 13.088 17.456 13.04 16.687 L 13.952 16.687 C 13.904 17.216 14.096 17.6 14.336 17.84 C 14.579 18.083 14.86 18.221 15.2 18.316 L 15.2 15.486 C 14.897 15.406 14.631 15.327 14.432 15.248 C 14.144 15.151 13.952 15.008 13.76 14.863 C 13.568 14.72 13.424 14.527 13.376 14.288 C 13.28 14.048 13.233 13.808 13.233 13.472 C 13.233 13.135 13.28 12.848 13.424 12.607 C 13.521 12.319 13.713 12.128 13.904 11.888 C 14.096 11.696 14.337 11.552 14.625 11.408 C 14.817 11.344 15.008 11.282 15.2 11.246 L 15.2 10.4 C 15.2 10.135 15.415 9.92 15.68 9.92 L 15.68 9.92 Z M 15.68 8 C 11.445 8 8 11.445 8 15.68 C 8 19.915 11.445 23.36 15.68 23.36 C 15.7 23.36 15.717 23.358 15.737 23.358 C 16.18 19.355 19.356 16.18 23.358 15.736 C 23.358 15.717 23.36 15.699 23.36 15.68 C 23.36 11.445 19.915 8 15.68 8 L 15.68 8 Z"
        fill="#000000"
        stroke="#00000000"
        stroke-width="1"
        fill-rule="evenodd"/>
</svg>
