<svg
    xmlns="http://www.w3.org/2000/svg"
    viewBox="0 0 40 40"
    id="walletaddress">
    <path
        id="path"
        d="M 20 40 C 8.954 40 0 31.046 0 20 C 0 8.954 8.954 0 20 0 C 31.046 0 40 8.954 40 20 C 40 31.046 31.046 40 20 40 Z"
        fill="#ffffff"
        fill-rule="evenodd"/>
    <path
        id="path_1"
        d="M 12.55 12.5 L 12.5 12.55 L 12.5 12.5 Z M 10 17.083 L 10 17.5 L 10.025 17.5 C 10.008 17.362 10 17.222 10 17.083 Z M 17.083 10 C 17.225 10 17.367 10.009 17.5 10.025 L 17.5 10 L 17.083 10 Z M 20.834 12.5 L 20.834 14.167 L 21.666 14.167 L 21.666 17.5 L 20 17.5 L 20 14.167 L 19.166 14.167 L 19.166 10 L 21.666 10 L 21.666 12.5 Z M 26.666 20.833 L 26.666 24.167 L 23.334 24.167 L 23.334 21.667 L 20.834 21.667 L 20.834 20 L 20 20 L 20 19.167 L 18.334 19.167 L 18.334 17.5 L 20 17.5 L 20 18.333 L 23.334 18.333 L 23.334 20.833 Z"
        fill="#000000"
        fill-rule="evenodd"/>
    <path
        id="path_2"
        d="M 30 18.333 L 30 21.667 L 27.5 21.667 L 27.5 20 L 24.167 20 L 24.167 18.333 Z M 30 22.5 L 30 25 L 28.333 25 L 28.333 24.167 L 27.5 24.167 L 27.5 22.5 Z M 29.817 26.667 C 29.646 27.271 29.352 27.833 28.953 28.317 C 28.554 28.802 28.06 29.199 27.5 29.483 L 27.5 26.667 L 22.5 26.667 L 22.5 25.833 L 20.834 25.833 L 20.834 27.5 L 24.167 27.5 L 24.167 29.167 L 23.334 29.167 L 23.334 30 L 20 30 L 20 27.5 L 18.334 27.5 L 18.334 25.833 L 20 25.833 L 20 24.167 L 19.167 24.167 L 19.167 21.667 L 20.834 21.667 L 20.834 24.167 L 22.5 24.167 L 22.5 25 L 27.5 25 L 27.5 25.833 L 29.167 25.833 L 29.167 26.667 L 29.817 26.667 Z M 19.166 19.167 L 19.166 21.667 L 15.834 21.667 L 15.834 20 L 13.334 20 L 13.334 18.333 L 15.834 18.333 L 15.834 19.167 Z M 13.334 20 L 13.334 21.667 L 10 21.667 L 10 18.333 L 12.5 18.333 L 12.5 20 Z"
        fill="#000000"
        fill-rule="evenodd"/>
    <path
        id="path_3"
        d="M 26.666 27.5 L 26.666 29.816 C 26.261 29.941 25.84 30.003 25.416 30 L 25 30 L 25 27.5 L 26.666 27.5 Z M 15 12.5 L 15 15 L 12.5 15 L 12.5 14.583 C 12.5 13.434 13.433 12.5 14.583 12.5 L 15 12.5 Z"
        fill="#000000"
        fill-rule="evenodd"/>
    <path
        id="path_4"
        d="M 15.834 15.833 L 11.666 15.833 L 11.666 14.583 C 11.666 13.792 11.983 13.075 12.501 12.55 L 12.501 12.5 L 12.55 12.5 C 13.092 11.965 13.823 11.666 14.584 11.667 L 15.834 11.667 L 15.834 15.833 Z M 17.084 10 L 14.584 10 C 12.066 10 10 12.066 10 14.583 L 10 17.083 C 10 17.225 10.008 17.366 10.024 17.5 L 17.5 17.5 L 17.5 10.025 C 17.362 10.009 17.223 10 17.084 10 Z"
        fill="#000000"
        fill-rule="evenodd"/>
    <path
        id="path_5"
        d="M 12.5 12.5 L 12.5 12.55 L 12.55 12.5 Z M 25 12.5 L 25 15 L 27.5 15 L 27.5 14.583 C 27.5 14.031 27.28 13.501 26.89 13.11 C 26.499 12.72 25.969 12.5 25.417 12.5 L 25 12.5 Z"
        fill="#000000"
        fill-rule="evenodd"/>
    <path
        id="path_6"
        d="M 24.166 11.667 L 25.416 11.667 C 26.209 11.667 26.924 11.983 27.451 12.5 L 27.5 12.5 L 27.5 12.55 C 28.017 13.075 28.334 13.792 28.334 14.583 L 28.334 15.833 L 24.166 15.833 L 24.166 11.667 Z M 22.5 10.025 L 22.5 17.5 L 29.976 17.5 C 29.991 17.366 30 17.225 30 17.083 L 30 14.583 C 30 12.066 27.933 10 25.416 10 L 22.916 10 C 22.774 10 22.634 10.009 22.5 10.025 Z M 15 27.5 L 15 25 L 12.5 25 L 12.5 25.417 C 12.5 26.566 13.433 27.5 14.583 27.5 L 15 27.5 Z"
        fill="#000000"
        fill-rule="evenodd"/>
    <path
        id="path_7"
        d="M 15.834 28.333 L 14.584 28.333 C 13.823 28.334 13.092 28.035 12.55 27.5 L 12.5 27.5 L 12.5 27.45 C 11.965 26.909 11.665 26.178 11.666 25.417 L 11.666 24.167 L 15.834 24.167 L 15.834 28.333 Z M 17.5 29.975 L 17.5 22.5 L 10.024 22.5 C 10.008 22.638 10 22.778 10.001 22.917 L 10.001 25.417 C 10 27.934 12.067 30 14.584 30 L 17.084 30 C 17.226 30 17.366 29.991 17.5 29.975 Z"
        fill="#000000"
        fill-rule="evenodd"/>
</svg>
