<svg width="206" height="150" viewBox="0 0 206 150" fill="none" xmlns="http://www.w3.org/2000/svg">
<g clip-path="url(#clip0_164_209)">
<path fill-rule="evenodd" clip-rule="evenodd" d="M173.392 105.592C172.656 105.352 172.112 104.728 171.977 103.967C167.86 103.907 159.666 100.457 154.762 101.053C153.968 102.104 153.297 103.244 152.762 104.449C156.7 109.856 167.037 110.854 173.392 105.592ZM164.306 112.109C159.549 115.079 158.204 128.341 142.366 129.793L140.152 125.74C140.152 125.74 140.835 116.946 147.897 113.951C154.479 111.157 161.007 111.781 164.307 112.109" fill="#C8DDF2"/>
<path fill-rule="evenodd" clip-rule="evenodd" d="M142.366 129.793C146.09 129.45 149.022 128.452 151.382 127.086C154.903 122.94 155.272 114.148 157.853 112.109C157.958 112.029 158.051 111.933 158.13 111.827C155.088 111.919 151.492 112.424 147.897 113.951C140.835 116.946 140.152 125.74 140.152 125.74L142.365 129.793H142.366Z" fill="#C8DDF2"/>
<path fill-rule="evenodd" clip-rule="evenodd" d="M140.749 126.472C144.816 125.492 149.567 121.759 153.759 118.465C157.798 115.291 161.613 112.293 164.077 112.293H164.12L164.125 111.925C161.531 111.892 157.825 114.802 153.531 118.175C149.369 121.445 144.651 125.153 140.663 126.113L140.749 126.472Z" fill="#9EBACC"/>
<path fill-rule="evenodd" clip-rule="evenodd" d="M174.656 74.674C172.239 78.139 176.044 90.627 166.812 93.008C159.731 94.833 156.082 93.545 154.579 94.28C156.379 86.94 153.033 74.355 174.656 74.674Z" fill="#C8DDF2"/>
<path fill-rule="evenodd" clip-rule="evenodd" d="M154.579 94.28C155.528 93.818 157.325 94.155 160.278 94.017C160.321 93.972 160.344 93.931 160.388 93.884C163.431 90.006 160.548 83.141 164.648 75.822C154.141 79.058 156.018 88.368 154.578 94.28" fill="#C8DDF2"/>
<path fill-rule="evenodd" clip-rule="evenodd" d="M142.951 110.104C145.212 108.928 147.557 105.037 150.526 100.11C151.25 98.907 152 97.663 152.803 96.366C155.039 92.76 159.551 89.11 163.914 85.581C168.672 81.731 173.167 78.096 174.274 74.853L173.894 74.724C172.825 77.858 168.374 81.459 163.662 85.27C159.273 88.82 154.735 92.491 152.463 96.155C151.659 97.455 150.908 98.7 150.183 99.903C147.246 104.776 144.927 108.625 142.766 109.75L142.951 110.105V110.104Z" fill="#9EBACC"/>
<path fill-rule="evenodd" clip-rule="evenodd" d="M152.762 104.45C158.792 91.172 172.473 97.406 178.659 93.358C178.629 97.208 177.634 100.289 176.039 102.666C174.302 101.843 173.12 101.779 172.291 102.779C171.546 103.689 172.141 105.186 173.391 105.591C167.037 110.853 156.701 109.856 152.762 104.449" fill="#C8DDF2"/>
<path fill-rule="evenodd" clip-rule="evenodd" d="M146.251 107.094C148.421 105.752 152.88 104.526 157.601 103.228C166.225 100.856 175.999 98.169 178.648 93.431L178.305 93.239C177.165 95.279 174.488 97.126 170.118 98.887C166.276 100.436 161.611 101.719 157.496 102.85C152.542 104.212 148.263 105.389 146.044 106.76L146.251 107.094Z" fill="#9EBACC"/>
<path fill-rule="evenodd" clip-rule="evenodd" d="M147.65 76.719C153.802 83.148 153.943 98.513 145.532 101.329C139.379 100.449 137.832 94.787 141.466 87.648C143.576 83.51 147.255 81.258 147.65 76.719Z" fill="#C8DDF2"/>
<path fill-rule="evenodd" clip-rule="evenodd" d="M145.531 101.328C148.206 100.434 150.016 98.274 151.042 95.536C150.42 91.712 146.295 86.012 145.034 82.541C143.854 84.118 142.474 85.666 141.466 87.648C137.833 94.788 139.38 100.449 145.531 101.328Z" fill="#C8DDF2"/>
<path fill-rule="evenodd" clip-rule="evenodd" d="M141.706 103.625C145.143 99.97 146.72 93.548 147.354 90.045C148.238 85.164 148.411 79.94 147.784 77.045L147.424 77.124C147.937 79.496 148.002 84.392 146.991 89.98C145.909 95.959 143.937 100.715 141.438 103.373L141.706 103.625Z" fill="#9EBACC"/>
<path fill-rule="evenodd" clip-rule="evenodd" d="M134.635 0H71.9711C67.6181 0 64.0891 3.525 64.0891 7.875V141.939C64.0891 146.288 67.6181 149.813 71.9711 149.813H134.635C138.988 149.813 142.517 146.288 142.517 141.939V7.875C142.517 3.525 138.987 0 134.635 0Z" stroke="#C8DDF2" stroke-width="4"/>
<path fill-rule="evenodd" clip-rule="evenodd" d="M59.958 142.57L59.772 144.545L62.134 147.208C62.134 147.208 67.111 147.378 65.092 149.693L60.802 149.408L54.802 146.552C54.802 146.552 54.967 143.609 55.662 143.266L56.43 140.966L59.958 142.571V142.57Z" fill="#E4EFF9"/>
<path fill-rule="evenodd" clip-rule="evenodd" d="M54.802 146.552L60.8 149.629L65.092 149.693C67.111 147.378 61.946 146.836 61.946 146.836L59.892 144.676C57.912 145.422 56.324 144.802 55.516 143.388C54.936 144.034 54.802 146.552 54.802 146.552Z" fill="#9EBACC"/>
<path fill-rule="evenodd" clip-rule="evenodd" d="M33.5809 141.265L32.1069 143.475L32.8439 145.685C32.8439 145.685 35.7749 146.077 35.6099 148.265H31.1859L26.5759 143.659C26.5759 143.659 27.4059 141.817 28.9729 141.08C29.3229 140.92 30.8169 138.686 30.8169 138.686L33.5819 141.265H33.5809Z" fill="#E4EFF9"/>
<path fill-rule="evenodd" clip-rule="evenodd" d="M29.009 141.06C28.995 141.064 28.982 141.071 28.972 141.08C27.405 141.817 26.575 143.66 26.575 143.66L31.1849 148.264H35.61C35.776 146.076 32.844 145.686 32.844 145.686L32.1069 143.476L32.18 143.368C30.779 143.648 29.304 142.728 29.009 141.06ZM55.296 41.078C56.643 40.348 58.0619 38.199 55.4809 36.29C52.8999 34.38 48.659 37.394 48.659 37.394C47.719 36.037 43.054 37.792 44.972 40.341C42.906 41.563 44.658 44.254 45.525 46.051C46.595 48.241 46.1329 49.824 47.7369 49.736C49.3409 49.647 53.951 41.808 55.297 41.078" fill="#9EBACC"/>
<path fill-rule="evenodd" clip-rule="evenodd" d="M47.9209 45.315C47.7009 46.906 46.8149 50.657 46.8149 50.657L51.9779 53.236L52.7149 49.183C52.7149 49.183 48.1419 43.723 47.9209 45.315Z" fill="#E4EFF9"/>
<path fill-rule="evenodd" clip-rule="evenodd" d="M52.513 50.272L49.397 48.631L52.218 51.966L52.513 50.272Z" fill="#9EBACC"/>
<path fill-rule="evenodd" clip-rule="evenodd" d="M55.8499 40.71L56.1269 42.184L56.0339 43.657C56.0339 43.657 57.3429 46.111 57.8779 46.237C57.5279 47.019 56.0339 47.157 56.0339 47.157C56.0339 47.157 55.6289 49.972 55.8499 50.289C56.0699 50.605 55.2409 51.363 52.8999 50.657C50.5579 49.951 49.6909 49.677 48.1049 47.157L48.7909 45.693C48.7909 45.693 47.2589 45.469 47.6459 43.407C47.8489 42.289 49.2859 41.575 49.9679 43.372C49.8949 44.01 49.8809 44.652 49.9249 45.293C49.9439 45.561 50.1749 45.766 50.4449 45.766C50.6949 45.766 50.9009 45.571 50.9139 45.321L51.0749 42.267C51.0749 42.267 53.5329 43.316 53.9379 41.407C55.1369 41.407 55.4809 40.987 55.8499 40.71Z" fill="#E4EFF9"/>
<path fill-rule="evenodd" clip-rule="evenodd" d="M46.816 50.289C48.475 50.836 51.808 51.775 52.508 52.836C52.508 53.979 52.508 54.265 51.47 54.957L46.262 51.577C46.478 51.162 46.662 50.731 46.815 50.289" fill="#9EBACC"/>
<path fill-rule="evenodd" clip-rule="evenodd" d="M77.2361 68.323C78.4671 68.083 79.6721 67.722 80.8311 67.245C80.8311 67.245 81.8281 66.515 82.3611 66.021C82.9711 65.471 84.7411 65.358 84.1871 65.787C83.6161 66.214 83.1001 66.63 83.1001 66.63C83.1001 66.63 83.7081 67.14 84.9441 66.973C86.4371 66.768 88.0961 66.037 88.0041 66.391C87.5061 68.571 85.0541 69.128 81.4771 69.661C80.2971 70.256 78.5461 71.751 77.3651 72.291C76.6281 70.576 77.3471 70.231 77.2361 68.323Z" fill="#E4EFF9"/>
<path fill-rule="evenodd" clip-rule="evenodd" d="M56.7981 88.264C60.8831 99.83 60.7241 111.321 60.7961 112.98C60.8001 113.074 60.8011 113.165 60.7981 113.258L60.0381 143.126L54.5061 143.476C54.5061 143.476 51.6701 124.719 52.7951 118.264C49.1411 110.124 49.0771 103.121 49.0771 103.121L47.7791 119.243C47.7791 119.243 36.7531 140.257 33.9501 141.716C33.9501 141.716 31.0191 139.876 29.3401 138.953C34.3381 128.156 35.4901 121.109 39.6391 116.264C39.9351 111.845 39.2561 87.865 39.2561 87.865C39.2561 87.865 52.4841 76.048 56.7981 88.265" fill="#C8DDF2"/>
<path fill-rule="evenodd" clip-rule="evenodd" d="M48.5041 109.693L44.2141 94.55L49.0761 103.407L48.5041 109.693ZM39.2561 87.865C39.2561 87.865 39.6851 88.97 39.3521 90.835H41.9341C44.7741 90.835 47.5961 90.41 50.3091 89.575L55.8491 87.865L40.6021 86.666C39.7541 87.364 39.2561 87.866 39.2561 87.866" fill="#9EBACC"/>
<path fill-rule="evenodd" clip-rule="evenodd" d="M47.9331 89.407L56.7821 87.68C57.3441 87.57 57.7111 87.026 57.5971 86.465C57.2791 84.898 56.7151 81.763 56.6011 78.827C56.5151 76.707 56.4411 74.842 56.4031 74.05C56.2931 71.716 56.5861 64.842 56.5861 64.842C56.5861 64.842 56.2211 58.279 55.0821 55.407C54.6101 54.21 55.6681 55.943 54.7971 55.407C51.0781 53.121 50.2441 53.424 46.4451 51.393C43.8831 53.327 39.4591 55.198 38.6461 57.333C37.8341 59.467 38.7811 73.978 38.7811 79.978C38.7811 82.335 38.7811 84.265 37.6861 86.44C36.6091 88.584 41.9261 90.265 47.9331 89.407Z" fill="#C8DDF2"/>
<path fill-rule="evenodd" clip-rule="evenodd" d="M51.079 61.979C51.079 61.979 49.523 75.65 56.361 78.739C56.435 78.773 56.515 78.801 56.601 78.827C56.515 76.707 56.441 74.841 56.403 74.05C56.293 71.716 56.587 64.841 56.587 64.841C56.587 64.841 55.786 61.704 54.647 58.833C53.973 57.885 57.447 57.924 56.798 57.693C53.074 56.356 51.078 61.979 51.078 61.979" fill="#9EBACC"/>
<path fill-rule="evenodd" clip-rule="evenodd" d="M54.0819 55.12C54.1479 55.12 54.2059 55.074 54.2199 55.007C54.2349 54.93 54.1859 54.856 54.1099 54.84L49.8299 53.985L44.9769 52.275C44.9029 52.249 44.8219 52.286 44.7969 52.36C44.7699 52.433 44.8089 52.514 44.8829 52.54L49.7629 54.26L54.0529 55.117C54.0629 55.119 54.0719 55.12 54.0819 55.12Z" fill="#CEE1F4"/>
<path fill-rule="evenodd" clip-rule="evenodd" d="M54.446 55.446C56.991 54.836 60.236 64.102 63.113 70.366C68.312 69.776 78.601 67.235 78.601 67.235L79.522 72.024C79.522 72.024 66.579 78.034 62.006 78.104C56.549 78.038 52.953 69.467 51.681 65.393C49.708 59.069 53.027 55.789 54.447 55.446M43.643 53.407C42.391 53.613 38.245 56.381 37.483 57.555C34.673 61.873 32.169 69.27 31.631 72.19C31.304 73.771 33.133 74.925 34.838 75.557C36.374 76.125 38.155 75.565 39.042 74.254C40.98 71.386 42.081 66.198 43.619 61.567" fill="#C8DDF2"/>
<path fill-rule="evenodd" clip-rule="evenodd" d="M35.9211 75.693H36.8661C36.9961 75.693 37.1261 75.663 37.2431 75.604L38.7811 74.836C38.7811 74.836 38.4951 74.264 37.9231 69.693C37.6371 67.979 37.8871 63.052 37.6371 63.693C33.6331 73.979 35.9211 75.693 35.9211 75.693Z" fill="#9EBACC"/>
<path fill-rule="evenodd" clip-rule="evenodd" d="M47.9331 45.122C47.9331 45.122 49.6481 47.408 48.7911 48.265C47.9331 49.121 47.1661 49.803 46.7891 49.408C46.4111 49.012 46.7891 46.264 46.7891 46.264L47.9331 45.122Z" fill="#C8DDF2"/>
<path d="M97.0969 84.1516C95.7482 81.677 94.4264 79.1727 92.3764 78.5207C91.8554 78.3548 91.3278 78.254 90.7714 78.1147C90.5674 74.9111 90.5674 74.9111 92.2398 74.7955C92.577 74.7718 92.9142 74.7718 93.2514 74.7451C95.6116 74.5525 97.8555 73.6367 99.9106 71.4852C104.417 66.7731 104.832 56.1753 100.681 50.9297C99.1149 48.9412 97.3245 47.4475 95.411 47.323C90.645 47 85.8688 47.08 81.0978 47C81.0759 47 81.0539 47.0563 81 47.1274V49.4983C82.2543 49.6435 83.458 49.7176 84.6533 49.931C86.4302 50.2599 87.0861 51.4454 87.113 54.5334C87.2198 67.4191 87.3075 80.3068 87.376 93.1964C87.3929 96.6964 86.5095 98.5309 84.5589 99.1236C83.3788 99.4822 82.1818 99.6156 81.0051 99.8497V102.793H108.817C107.025 100.451 105.145 98.4094 103.554 95.8192C101.285 92.1414 99.2278 88.0754 97.0969 84.1516Z" fill="#C8DDF2"/>
<path d="M121.473 99.1029C119.467 98.4746 118.579 96.649 118.607 93.0927C118.685 80.1596 118.784 67.2265 118.904 54.2934C118.929 51.478 119.288 50.7045 120.86 50.2155C122.208 49.7947 123.57 49.6228 124.987 49.3264V47.0385H105.172C105.449 47.3739 105.714 47.7371 105.966 48.1262C106.902 49.8124 107.961 51.3535 108.728 53.2532C110.619 57.9268 110.449 63.6257 108.364 68.0533C106.631 71.7223 104.37 74.0398 101.789 75.3971C101.131 75.7468 100.474 76.0432 99.9141 76.3099C100.961 77.9695 102.092 79.4543 103.011 81.271C106.096 87.376 109.357 93.0572 113.194 97.7841C116.81 102.229 120.674 103.756 124.995 102.653V99.8616C123.793 99.6097 122.621 99.4555 121.473 99.1029Z" fill="#C8DDF2"/>
</g>
<defs>
<clipPath id="clip0_164_209">
<rect width="206" height="150" fill="white"/>
</clipPath>
</defs>
</svg>
