<svg
    xmlns="http://www.w3.org/2000/svg"
    viewBox="0 0 40 40"
    id="developermode">
    <path
        id="path"
        d="M 40 20 C 40 31.046 31.046 40 20 40 C 8.954 40 0 31.046 0 20 C 0 8.954 8.954 0 20 0 C 31.046 0 40 8.954 40 20"
        fill="#ffffff"
        fill-rule="evenodd"/>
    <path
        id="path_1"
        d="M 10.5 18 C 11.028 18 11.542 18.167 11.969 18.477 C 12.397 18.788 12.715 19.225 12.878 19.727 C 13.041 20.229 13.041 20.771 12.878 21.273 C 12.715 21.775 12.397 22.212 11.969 22.523 C 11.542 22.833 11.028 23 10.5 23 C 9.837 23 9.201 22.736 8.732 22.268 C 8.264 21.799 8 21.163 8 20.5 C 8 19.837 8.264 19.201 8.732 18.732 C 9.201 18.264 9.837 18 10.5 18 Z M 19.5 18 C 20.028 18 20.542 18.167 20.969 18.477 C 21.397 18.788 21.715 19.225 21.878 19.727 C 22.041 20.229 22.041 20.771 21.878 21.273 C 21.715 21.775 21.397 22.212 20.969 22.523 C 20.542 22.833 20.028 23 19.5 23 C 18.837 23 18.201 22.736 17.732 22.268 C 17.264 21.799 17 21.163 17 20.5 C 17 19.837 17.264 19.201 17.732 18.732 C 18.201 18.264 18.837 18 19.5 18 Z M 28.5 18 C 29.028 18 29.542 18.167 29.969 18.477 C 30.397 18.788 30.715 19.225 30.878 19.727 C 31.041 20.229 31.041 20.771 30.878 21.273 C 30.715 21.775 30.397 22.212 29.969 22.523 C 29.542 22.833 29.028 23 28.5 23 C 27.837 23 27.201 22.736 26.732 22.268 C 26.264 21.799 26 21.163 26 20.5 C 26 19.837 26.264 19.201 26.732 18.732 C 27.201 18.264 27.837 18 28.5 18 Z"
        fill="#000000"
        fill-rule="evenodd"/>
</svg>
