<svg
    xmlns="http://www.w3.org/2000/svg"
    viewBox="0 0 40 40"
    id="walletconnect">
    <path
        id="path"
        d="M 40 20 C 40 31.046 31.046 40 20 40 C 8.954 40 0 31.046 0 20 C 0 8.954 8.954 0 20 0 C 31.046 0 40 8.954 40 20"
        fill="#ffffff"
        fill-rule="evenodd"/>
    <path
        id="path_1"
        d="M 11.555 25.473 C 10.172 24.087 8.582 22.498 8.023 21.951 C 7.024 20.965 7 20.941 7 20.59 C 7 20.248 7.024 20.215 7.903 19.35 C 9.07 18.193 9.038 18.202 10.085 19.22 C 10.508 19.628 11.419 20.541 12.115 21.234 C 12.802 21.927 13.601 22.734 13.888 23.019 L 14.416 23.541 L 15.95 22 C 16.797 21.151 17.932 20.01 18.475 19.464 C 19.37 18.559 19.49 18.461 19.745 18.461 C 20.05 18.461 19.97 18.388 23.909 22.366 L 25.076 23.532 L 25.763 22.855 C 26.147 22.48 27.178 21.453 28.057 20.573 C 30.302 18.315 30.142 18.461 30.438 18.461 C 30.654 18.461 30.838 18.6 31.637 19.382 C 32.452 20.19 32.572 20.344 32.572 20.572 C 32.572 20.809 32.356 21.054 30.358 23.051 C 29.136 24.274 27.529 25.88 26.778 26.629 C 25.476 27.943 25.404 28 25.1 28 C 24.78 28 24.724 27.951 22.823 26.044 C 20.337 23.557 19.793 23.027 19.73 23.027 C 19.706 23.027 18.939 23.777 18.036 24.69 C 17.133 25.603 16.014 26.72 15.551 27.169 C 14.288 28.408 14.631 28.554 11.555 25.473"
        fill="#000000"
        fill-rule="evenodd"/>
    <path
        id="path_2"
        d="M 12.796 17.42 C 11.538 16.164 11.529 16.14 12.446 15.233 C 13.543 14.144 14.086 13.745 15.386 13.063 C 15.718 12.889 16.051 12.748 16.116 12.748 C 16.189 12.748 16.278 12.715 16.327 12.665 C 16.367 12.623 16.912 12.449 17.529 12.291 C 18.616 12.008 18.689 12 20.216 12 C 21.742 12 21.815 12.008 22.903 12.29 C 23.52 12.449 24.063 12.623 24.104 12.665 C 24.153 12.715 24.234 12.748 24.291 12.748 C 24.583 12.748 26.571 13.887 26.824 14.194 C 26.88 14.269 26.962 14.327 27.002 14.327 C 27.14 14.327 28.536 15.765 28.585 15.957 C 28.658 16.239 28.488 16.463 27.514 17.427 C 26.872 18.059 26.556 18.317 26.418 18.317 C 26.28 18.317 26.068 18.159 25.776 17.851 C 24.818 16.854 23.869 16.239 22.529 15.741 L 21.758 15.449 L 20.216 15.458 C 18.698 15.458 18.665 15.466 17.943 15.724 C 16.652 16.197 15.84 16.713 14.801 17.718 C 14.403 18.101 14.021 18.4 13.932 18.4 C 13.835 18.4 13.38 18.01 12.796 17.42"
        fill="#000000"
        fill-rule="evenodd"/>
</svg>
