<svg
    xmlns="http://www.w3.org/2000/svg"
    viewBox="0 0 40 40"
    id="changewallet">
    <path
        id="path"
        d="M 20 40 C 8.954 40 0 31.046 0 20 C 0 8.954 8.954 0 20 0 C 31.046 0 40 8.954 40 20 C 40 31.046 31.046 40 20 40 Z"
        fill="#ffffff"
        fill-rule="evenodd"/>
    <path
        id="path_1"
        d="M 17.5 20.5 C 17.5 22.342 18.992 23.833 20.833 23.833 L 28.333 23.833 L 28.333 26.333 C 28.333 27.25 27.583 28 26.667 28 L 11.667 28 C 10.75 28 10 27.25 10 26.333 L 10 14.667 C 10 13.866 10.567 13.2 11.317 13.042 L 11.317 13.033 C 11.325 13.025 11.333 13.009 11.35 13 L 27.033 13 C 27.042 13.017 27.058 13.033 27.075 13.05 C 27.8 13.233 28.333 13.892 28.333 14.667 L 28.333 17.167 L 20.833 17.167 C 18.992 17.167 17.5 18.658 17.5 20.5"
        fill="#000000"
        fill-rule="evenodd"/>
    <path
        id="path_2"
        d="M 21.666 21.333 C 21.209 21.333 20.834 20.958 20.834 20.5 C 20.834 20.042 21.209 19.667 21.666 19.667 C 22.124 19.667 22.499 20.042 22.499 20.5 C 22.499 20.958 22.124 21.333 21.666 21.333 M 29.166 18.833 L 20.834 18.833 C 19.916 18.833 19.166 19.583 19.166 20.5 C 19.166 21.417 19.916 22.167 20.834 22.167 L 29.166 22.167 C 29.616 22.167 30 21.783 30 21.333 L 30 19.667 C 30 19.217 29.616 18.833 29.166 18.833 M 25.225 12.167 L 14.742 12.167 L 21.166 8.235 C 21.958 7.749 22.983 8.041 23.442 8.889 L 25.225 12.167 Z"
        fill="#000000"
        fill-rule="evenodd"/>
</svg>
