<svg
    xmlns="http://www.w3.org/2000/svg"
    viewBox="0 0 40 40"
    id="notificationscircle">
    <path
        id="path"
        d="M 40 20 C 40 31.046 31.046 40 20 40 C 8.954 40 0 31.046 0 20 C 0 8.954 8.954 0 20 0 C 31.046 0 40 8.954 40 20"
        fill="#ffffff"
        fill-rule="evenodd"/>
    <path
        id="path_1"
        d="M 22.82 30 C 22.42 31.17 21.31 32 20 32 C 18.69 32 17.58 31.17 17.18 30 L 22.82 30 Z M 30 28 L 30 29 L 10 29 L 10 28 L 13 25 L 13 18 C 13 14.68 15.3 11.9 18.4 11.19 C 18.14 10.86 18 10.44 18 10 C 18 8.9 18.9 8 20 8 C 21.1 8 22 8.9 22 10 C 22 10.44 21.86 10.86 21.6 11.19 C 24.7 11.9 27 14.68 27 18 L 27 25 L 30 28 Z"
        fill="#000000"
        fill-rule="evenodd"/>
</svg>
