<svg
    xmlns="http://www.w3.org/2000/svg"
    viewBox="0 0 40 40"
    id="backupcircle">
    <path
        id="path"
        d="M 40 20 C 40 31.046 31.046 40 20 40 C 8.954 40 0 31.046 0 20 C 0 8.954 8.954 0 20 0 C 31.046 0 40 8.954 40 20"
        fill="#ffffff"
        fill-rule="evenodd"/>
    <path
        id="path_1"
        d="M 19.176 23.572 L 15.863 20.278 L 17.346 18.803 L 19.176 20.623 L 22.654 17.166 L 24.137 18.64 L 19.176 23.572 Z M 29.946 11.75 C 25.825 11.75 22.669 10.58 20 8 C 17.33 10.58 14.175 11.75 10.055 11.75 C 10.055 18.468 8.655 28.092 20 32 C 31.344 28.092 29.946 18.468 29.946 11.75 Z"
        fill="#000000"
        fill-rule="evenodd"/>
</svg>
