<svg
    xmlns="http://www.w3.org/2000/svg"
    viewBox="0 0 40 40"
    id="biometrics">
    <path
        id="path"
        d="M 40 20 C 40 31.046 31.046 40 20 40 C 8.954 40 0 31.046 0 20 C 0 8.954 8.954 0 20 0 C 31.046 0 40 8.954 40 20"
        fill="#ffffff"
        stroke="#00000000"
        stroke-width="1"
        fill-rule="evenodd"/>
    <path
        id="path_1"
        d="M 27.262 10.588 C 27.163 10.588 27.063 10.563 26.975 10.512 C 24.575 9.275 22.5 8.75 20.012 8.75 C 17.538 8.75 15.188 9.338 13.05 10.512 C 12.75 10.675 12.375 10.563 12.2 10.262 C 12.037 9.963 12.15 9.575 12.45 9.412 C 14.775 8.15 17.325 7.5 20.012 7.5 C 22.675 7.5 25 8.088 27.55 9.4 C 27.863 9.563 27.975 9.938 27.813 10.238 C 27.7 10.463 27.488 10.588 27.262 10.588 Z M 9.375 17.15 C 9.25 17.15 9.125 17.113 9.012 17.038 C 8.725 16.837 8.662 16.45 8.863 16.163 C 10.1 14.412 11.675 13.037 13.55 12.075 C 17.475 10.05 22.5 10.037 26.438 12.063 C 28.313 13.025 29.887 14.387 31.125 16.125 C 31.325 16.4 31.262 16.8 30.975 17 C 30.688 17.2 30.3 17.137 30.1 16.85 C 28.975 15.275 27.55 14.037 25.863 13.175 C 22.275 11.338 17.688 11.338 14.113 13.188 C 12.412 14.063 10.988 15.313 9.863 16.887 C 9.762 17.063 9.575 17.15 9.375 17.15 Z M 17.188 32.237 C 17.025 32.237 16.863 32.175 16.75 32.05 C 15.662 30.962 15.075 30.262 14.238 28.75 C 13.375 27.212 12.925 25.337 12.925 23.325 C 12.925 19.613 16.1 16.587 20 16.587 C 23.9 16.587 27.075 19.613 27.075 23.325 C 27.075 23.675 26.8 23.95 26.45 23.95 C 26.1 23.95 25.825 23.675 25.825 23.325 C 25.825 20.3 23.212 17.837 20 17.837 C 16.788 17.837 14.175 20.3 14.175 23.325 C 14.175 25.125 14.575 26.788 15.338 28.137 C 16.137 29.575 16.688 30.188 17.65 31.163 C 17.887 31.413 17.887 31.8 17.65 32.05 C 17.512 32.175 17.35 32.237 17.188 32.237 Z M 26.15 29.925 C 24.663 29.925 23.35 29.55 22.275 28.813 C 20.413 27.55 19.3 25.5 19.3 23.325 C 19.3 22.975 19.575 22.7 19.925 22.7 C 20.275 22.7 20.55 22.975 20.55 23.325 C 20.55 25.087 21.45 26.75 22.975 27.775 C 23.863 28.375 24.9 28.663 26.15 28.663 C 26.45 28.663 26.95 28.625 27.45 28.538 C 27.788 28.475 28.113 28.7 28.175 29.05 C 28.238 29.387 28.012 29.712 27.663 29.775 C 26.95 29.913 26.325 29.925 26.15 29.925 Z M 23.637 32.5 C 23.587 32.5 23.525 32.487 23.475 32.475 C 21.488 31.925 20.188 31.188 18.825 29.85 C 17.075 28.113 16.113 25.8 16.113 23.325 C 16.113 21.3 17.837 19.65 19.962 19.65 C 22.087 19.65 23.813 21.3 23.813 23.325 C 23.813 24.663 24.975 25.75 26.413 25.75 C 27.85 25.75 29.012 24.663 29.012 23.325 C 29.012 18.613 24.95 14.787 19.95 14.787 C 16.4 14.787 13.15 16.762 11.688 19.825 C 11.2 20.837 10.95 22.025 10.95 23.325 C 10.95 24.3 11.037 25.837 11.787 27.837 C 11.912 28.163 11.75 28.525 11.425 28.637 C 11.1 28.762 10.738 28.587 10.625 28.275 C 10.012 26.637 9.713 25.012 9.713 23.325 C 9.713 21.825 10 20.462 10.563 19.275 C 12.225 15.787 15.912 13.525 19.95 13.525 C 25.637 13.525 30.262 17.913 30.262 23.313 C 30.262 25.337 28.538 26.988 26.413 26.988 C 24.288 26.988 22.563 25.337 22.563 23.313 C 22.563 21.975 21.4 20.887 19.962 20.887 C 18.525 20.887 17.363 21.975 17.363 23.313 C 17.363 25.45 18.188 27.45 19.7 28.95 C 20.887 30.125 22.025 30.775 23.788 31.262 C 24.125 31.35 24.313 31.7 24.225 32.025 C 24.163 32.313 23.9 32.5 23.637 32.5 Z"
        fill="#000000"
        stroke-width="1"/>
</svg>
