<svg
    xmlns="http://www.w3.org/2000/svg"
    viewBox="0 0 40 40"
    id="iconssettingsseed2">
    <path
        id="path"
        d="M 20 40 C 8.954 40 0 31.046 0 20 C 0 8.954 8.954 0 20 0 C 31.046 0 40 8.954 40 20 C 40 31.046 31.046 40 20 40 Z"
        fill="#ffffff"
        fill-rule="evenodd"/>
    <path
        id="path_1"
        d="M 25.714 9.296 C 22.242 9.296 19.428 12.11 19.428 15.582 C 19.428 16.747 19.75 17.835 20.303 18.77 L 17.119 21.954 L 17.118 21.952 L 13.786 18.62 C 13.492 18.327 12.969 18.327 12.676 18.62 L 11.009 20.286 L 12.675 21.952 C 12.985 22.262 12.985 22.759 12.675 23.062 C 12.378 23.37 11.862 23.37 11.565 23.062 L 9.899 21.397 L 8.228 23.063 C 7.924 23.372 7.924 23.869 8.228 24.173 L 11.564 27.51 L 10.458 28.616 C 9.845 29.229 9.845 30.226 10.458 30.839 C 11.068 31.449 12.068 31.452 12.68 30.839 L 22.525 20.993 C 23.461 21.546 24.548 21.868 25.714 21.868 C 29.186 21.868 32 19.054 32 15.582 C 32 12.11 29.186 9.296 25.714 9.296 Z M 25.714 18.726 C 23.981 18.726 22.571 17.316 22.571 15.582 C 22.571 13.849 23.981 12.439 25.714 12.439 C 27.447 12.439 28.857 13.849 28.857 15.582 C 28.857 17.315 27.447 18.725 25.714 18.725 Z"
        fill="#000000"
        fill-rule="evenodd"/>
</svg>
