<svg
    xmlns="http://www.w3.org/2000/svg"
    viewBox="0 0 40 40"
    id="networkscircle">
    <path
        id="path"
        d="M 20 20 M 0 20 C 0 14.698 2.109 9.607 5.858 5.858 C 9.607 2.109 14.698 0 20 0 C 25.302 0 30.393 2.109 34.142 5.858 C 37.891 9.607 40 14.698 40 20 C 40 25.302 37.891 30.393 34.142 34.142 C 30.393 37.891 25.302 40 20 40 C 14.698 40 9.607 37.891 5.858 34.142 C 2.109 30.393 0 25.302 0 20"
        fill="#ffffff"
        fill-rule="evenodd"/>
    <path
        id="path_1"
        d="M 40 20 C 40 31.046 31.046 40 20 40 C 8.954 40 0 31.046 0 20 C 0 8.954 8.954 0 20 0 C 31.046 0 40 8.954 40 20"
        fill="#ffffff"
        fill-rule="evenodd"/>
    <path
        id="path_2"
        d="M 23.726 22.296 C 22.743 22.462 21.892 23.009 21.327 23.778 L 15.438 20.833 C 15.544 20.487 15.601 20.119 15.601 19.739 C 15.601 19.358 15.544 18.989 15.438 18.644 L 21.328 15.699 C 21.89 16.472 22.743 17.018 23.726 17.184 L 23.726 22.296 Z M 24.976 22.295 L 24.976 17.183 C 26.748 16.886 28.101 15.347 28.101 13.489 C 28.101 11.418 26.421 9.739 24.351 9.739 C 22.279 9.739 20.601 11.418 20.601 13.489 C 20.601 13.869 20.659 14.236 20.765 14.583 L 14.875 17.527 C 14.193 16.597 13.095 15.989 11.851 15.989 C 9.781 15.989 8.101 17.668 8.101 19.739 C 8.101 21.809 9.781 23.489 11.851 23.489 C 13.095 23.489 14.194 22.881 14.876 21.949 L 20.766 24.894 C 20.659 25.241 20.601 25.609 20.601 25.989 C 20.601 28.059 22.279 29.739 24.351 29.739 C 26.421 29.739 28.101 28.059 28.101 25.989 C 28.101 24.131 26.748 22.592 24.975 22.295 Z"
        fill="#000000"
        fill-rule="evenodd"/>
</svg>
